<svg width="408" height="155" viewBox="0 0 408 155" fill="none" xmlns="http://www.w3.org/2000/svg">
<mask id="mask0_4_128" style="mask-type:alpha" maskUnits="userSpaceOnUse" x="0" y="49" width="405" height="99">
<path d="M39 96C42.866 96 46 92.866 46 89C46 85.134 42.866 82 39 82C35.134 82 32 85.134 32 89C32 92.866 35.134 96 39 96Z" stroke="white" stroke-width="7"/>
<path d="M18 89H32M46 89H60M28.5 107.186L35.5 95.062M42.5 82.938L49.5 70.814M49.5 107.186L42.5 95.062M35.5 82.938L28.5 70.814M21.5 58.683C26.8183 55.6062 32.8558 53.9906 39 54C58.3305 54 74 69.6695 74 89C74 108.331 58.3305 124 39 124C19.6695 124 4 108.331 4 89C4 82.6265 5.7045 76.645 8.683 71.5" stroke="white" stroke-width="7" stroke-linecap="round"/>
<path d="M49.5001 107.19C45.0878 109.736 39.9001 110.592 34.9035 109.598C29.9069 108.604 25.4421 105.827 22.3409 101.785C19.2397 97.7431 17.7136 92.7116 18.047 87.6279C18.3803 82.5442 20.5503 77.7551 24.1527 74.1527C27.7552 70.5503 32.5443 68.3802 37.628 68.0469C42.7116 67.7136 47.7431 69.2397 51.7851 72.3408C55.8271 75.442 58.6039 79.9068 59.5982 84.9034C60.5924 89.9 59.7364 95.0877 57.1896 99.5" stroke="white" stroke-width="7" stroke-linecap="round"/>
<path d="M113.74 127C112.156 125.14 110.881 122.901 109.917 120.283C109.021 117.666 108.573 113.739 108.573 108.503V75.23H100.1V65H108.78V49.5H122.42V65H132.65V75.23H122.523V106.747C122.523 112.258 123.109 116.46 124.28 119.353C125.52 122.178 127.001 124.52 128.723 126.38V127H113.74ZM160.963 128.55C151.181 128.55 143.844 125.622 138.953 119.767C134.131 113.842 131.72 105.92 131.72 96C131.72 86.08 134.131 78.1922 138.953 72.3367C143.844 66.4122 151.181 63.45 160.963 63.45C170.883 63.45 178.254 66.4122 183.077 72.3367C187.899 78.1922 190.31 86.08 190.31 96C190.31 105.92 187.899 113.842 183.077 119.767C178.254 125.622 170.883 128.55 160.963 128.55ZM161.067 118.423C166.164 118.423 169.884 116.494 172.227 112.637C174.638 108.71 175.843 103.164 175.843 96C175.843 88.8356 174.638 83.3244 172.227 79.4667C169.884 75.54 166.164 73.5767 161.067 73.5767C155.9 73.5767 152.111 75.54 149.7 79.4667C147.358 83.3244 146.187 88.8356 146.187 96C146.187 103.164 147.358 108.71 149.7 112.637C152.111 116.494 155.9 118.423 161.067 118.423ZM194.498 127V65H207.105V75.9533H209.585C209.998 74.0933 210.756 72.2678 211.858 70.4767C212.96 68.6856 214.648 67.2389 216.922 66.1367C219.264 64.9656 222.433 64.38 226.428 64.38H229.115V77.1933H225.292C219.298 77.1933 214.993 78.7433 212.375 81.8433C209.757 84.9433 208.448 89.6622 208.448 96V127H194.498ZM269.281 147.667V119.87H266.801C265.354 122.488 263.322 124.554 260.704 126.07C258.086 127.586 254.711 128.343 250.578 128.343C245.204 128.343 240.658 127 236.938 124.313C233.286 121.627 230.496 117.872 228.568 113.05C226.708 108.159 225.778 102.51 225.778 96.1033C225.778 89.6278 226.708 83.9789 228.568 79.1567C230.496 74.2656 233.286 70.4767 236.938 67.79C240.658 65.0344 245.239 63.6567 250.681 63.6567C255.365 63.6567 259.085 64.5867 261.841 66.4467C264.665 68.3067 266.732 70.5111 268.041 73.06H270.521V65H283.231V147.667H269.281ZM254.091 117.803C258.775 117.803 262.495 115.84 265.251 111.913C268.006 107.918 269.384 102.613 269.384 96C269.384 89.3867 268.006 84.1167 265.251 80.19C262.495 76.1944 258.775 74.1967 254.091 74.1967C249.682 74.1967 246.272 76.0567 243.861 79.7767C241.45 83.4967 240.244 88.9044 240.244 96C240.244 103.096 241.45 108.503 243.861 112.223C246.272 115.943 249.682 117.803 254.091 117.803ZM311.544 128.55C304.449 128.55 299.213 126.346 295.838 121.937C292.462 117.528 290.774 111.741 290.774 104.577V65H304.724V101.993C304.724 106.747 305.585 110.432 307.308 113.05C309.03 115.668 311.751 116.977 315.471 116.977C320.086 116.977 323.634 115.186 326.114 111.603C328.594 108.021 329.834 103.647 329.834 98.48V65H343.784V127H331.281V117.7H328.801C327.699 120.938 325.735 123.556 322.911 125.553C320.086 127.551 316.298 128.55 311.544 128.55ZM377.001 128.55C367.563 128.55 360.364 125.622 355.404 119.767C350.444 113.842 347.964 105.886 347.964 95.8967C347.964 89.2833 349.067 83.5656 351.271 78.7433C353.475 73.9211 356.713 70.1667 360.984 67.48C365.324 64.7933 370.594 63.45 376.794 63.45C385.681 63.45 392.467 66.24 397.151 71.82C401.835 77.3311 404.178 85.4256 404.178 96.1033V99.41H361.604C361.949 105.059 363.395 109.606 365.944 113.05C368.562 116.494 372.248 118.217 377.001 118.217C380.583 118.217 383.442 117.183 385.578 115.117C387.782 113.05 389.298 110.398 390.124 107.16H403.454C402.697 111.156 401.25 114.772 399.114 118.01C397.048 121.179 394.189 123.728 390.538 125.657C386.887 127.586 382.374 128.55 377.001 128.55ZM361.708 90.11H390.538C390.262 84.8056 388.919 80.7067 386.508 77.8133C384.165 74.92 380.893 73.4733 376.691 73.4733C372.351 73.4733 368.907 74.8856 366.358 77.71C363.809 80.5344 362.259 84.6678 361.708 90.11Z" fill="white"/>
</mask>
<g mask="url(#mask0_4_128)">
<rect x="-57" y="-15" width="525" height="185" fill="url(#paint0_linear_4_128)"/>
</g>
<defs>
<linearGradient id="paint0_linear_4_128" x1="161" y1="377.5" x2="240.5" y2="-149" gradientUnits="userSpaceOnUse">
<stop offset="0.119792" stop-color="#FF3D3D"/>
<stop offset="0.5625" stop-color="#753DFF"/>
</linearGradient>
</defs>
</svg>
